<svg width="211" height="375" viewBox="0 0 211 375" fill="none" xmlns="http://www.w3.org/2000/svg">
<path d="M190.255 167.444C197.084 161.318 192.749 149.998 183.575 150L114.011 150.013C108.49 150.014 104.014 154.49 104.013 160.011L104 222.412C103.998 231.062 114.238 235.634 120.678 229.857L190.255 167.444Z" fill="url(#paint0_linear_95_44)"/>
<path d="M8.95386 66.01C8.95386 42.6609 8.95386 30.9863 13.5699 22.1001C17.4598 14.6117 23.5655 8.50595 31.0539 4.61605C39.9402 0 51.6147 0 74.9639 0H128.206C151.555 0 163.23 0 172.116 4.61605C179.605 8.50595 185.71 14.6117 189.6 22.1001C194.216 30.9863 194.216 42.6609 194.216 66.01V150.806C194.216 155.362 194.216 157.64 193.316 159.374C192.557 160.835 191.365 162.026 189.904 162.785C188.17 163.686 185.892 163.686 181.336 163.686H74.9638C51.6147 163.686 39.9402 163.686 31.0539 159.07C23.5655 155.18 17.4598 149.074 13.5699 141.586C8.95386 132.699 8.95386 121.025 8.95386 97.6757V66.01Z" fill="url(#paint1_linear_95_44)"/>
<path d="M104 164H156.514C158.502 164 160.455 164.528 162.172 165.53C167.07 168.389 169.839 173.852 169.249 179.493L168.379 187.808L164.104 180.004C161.296 174.879 155.916 171.692 150.071 171.692H104V164Z" fill="#5A44CC"/>
<path d="M139.53 95.2348C146.721 95.2348 152.55 89.4054 152.55 82.2143C152.55 75.0233 146.721 69.1938 139.53 69.1938C132.339 69.1938 126.509 75.0233 126.509 82.2143C126.509 89.4054 132.339 95.2348 139.53 95.2348Z" fill="white"/>
<path d="M63.6398 95.2348C70.8308 95.2348 76.6603 89.4054 76.6603 82.2143C76.6603 75.0233 70.8308 69.1938 63.6398 69.1938C56.4488 69.1938 50.6193 75.0233 50.6193 82.2143C50.6193 89.4054 56.4488 95.2348 63.6398 95.2348Z" fill="white"/>
<path d="M101.585 95.2348C108.776 95.2348 114.606 89.4054 114.606 82.2143C114.606 75.0233 108.776 69.1938 101.585 69.1938C94.394 69.1938 88.5645 75.0233 88.5645 82.2143C88.5645 89.4054 94.394 95.2348 101.585 95.2348Z" fill="white"/>
<path d="M5.25 327V282.312H24C32.7083 282.312 37.0625 286.406 37.0625 294.594C37.0625 302.656 30.0938 307.792 16.1562 310L15.5938 307C27.4688 305.354 33.4062 301.302 33.4062 294.844C33.4062 288.427 30.0938 285.219 23.4688 285.219H8.53125V327H5.25ZM55.3688 282.312V286.062H51.4625V282.312H55.3688ZM55.0563 294.188V327H51.775V294.188H55.0563ZM67.425 294.188H71.175L83.175 324.156L95.2375 294.188H98.9875L85.0188 327H81.2063L67.425 294.188ZM112.419 310.469C112.419 319.823 116.429 324.5 124.45 324.5C132.471 324.5 136.481 319.823 136.481 310.469C136.481 301.281 132.471 296.688 124.45 296.688C116.429 296.688 112.419 301.281 112.419 310.469ZM109.137 310.594C109.137 299.448 114.242 293.875 124.45 293.875C134.658 293.875 139.762 299.448 139.762 310.594C139.762 321.719 134.658 327.281 124.45 327.281C114.283 327.281 109.179 321.719 109.137 310.594ZM154.475 288.875H156.788L157.381 294.188H167.225V297H157.663V317.719C157.663 322.031 159.246 324.188 162.413 324.188H167.225V327H162.475C157.142 327 154.475 324.052 154.475 318.156V288.875ZM193.844 294.188C202.823 294.188 207.312 299.156 207.312 309.094C207.312 309.802 207.292 310.542 207.25 311.312H182.344C182.344 319.896 186.885 324.188 195.969 324.188C199.698 324.188 203.01 323.667 205.906 322.625V325.438C203.01 326.479 199.698 327 195.969 327C184.698 327 179.062 321.406 179.062 310.219C179.062 299.531 183.99 294.188 193.844 294.188ZM182.344 308.375H204.156C204.031 300.75 200.594 296.938 193.844 296.938C186.552 296.938 182.719 300.75 182.344 308.375Z" fill="white"/>
<defs>
<linearGradient id="paint0_linear_95_44" x1="108.98" y1="239.007" x2="194.916" y2="162.745" gradientUnits="userSpaceOnUse">
<stop offset="0.526407" stop-color="#6B4EF6"/>
<stop offset="1" stop-color="#914FF7"/>
</linearGradient>
<linearGradient id="paint1_linear_95_44" x1="173.756" y1="-5.85166e-06" x2="42.807" y2="153.269" gradientUnits="userSpaceOnUse">
<stop stop-color="#A052F0"/>
<stop offset="1" stop-color="#814EFC"/>
</linearGradient>
</defs>
</svg>
